<?xml version="1.0" encoding="utf-8"?>
<!-- Generator: Adobe Illustrator 23.0.1, SVG Export Plug-In . SVG Version: 6.00 Build 0)  -->
<svg version="1.1" id="Livello_1" xmlns="http://www.w3.org/2000/svg" xmlns:xlink="http://www.w3.org/1999/xlink" x="0px" y="0px"
	 viewBox="0 0 370.1 370.1" style="enable-background:new 0 0 370.1 370.1;" xml:space="preserve">
<style type="text/css">
	.st0{fill:#91BFFF;}
	.st1{fill:#4285F4;}
	.st2{fill:#C4E1FF;}
	.st3{fill:#F5F5F5;}
	.st4{fill:#255FDB;}
</style>
<g>
	<circle class="st0" cx="185.1" cy="185.1" r="185.1"/>
	<path class="st1" d="M368.4,210.5c-13.6,62.1-107.7,93.9-183.3-22C97.6,55.5,5,107.7,0,185.1c0,102.6,82.4,185.1,185.1,185.1
		C279.1,370.1,356.1,301,368.4,210.5z"/>
	<path class="st2" d="M42.1,67.3L42.1,67.3c67.3-58.8,136.3-43.7,200.2,64c52,82.2,102.4,72.4,127.7,45.6
		C365.7,78.1,284.9,0,185.1,0C127.3,0,75.9,26.1,42.1,67.3z"/>
	<path class="st3" d="M297.8,95.9c26.7,41.7,43.4,43.7,65,37.2C340.5,56,269.6,0,185.1,0c-20.2,0-39.6,3.2-57.8,9.1
		C203.2-9.7,259,36.1,297.8,95.9z"/>
	<path class="st4" d="M339.8,286.9V286c-43.7,53.8-138,65.6-213.7-33.6C62.2,168.2,5,208.6,16.8,262.5v0.1
		c29.2,63.6,93.3,107.6,168.2,107.6C250,370.1,306.8,337.1,339.8,286.9z"/>
</g>
</svg>
